<svg width="75" height="61" viewBox="0 0 75 61" fill="none" xmlns="http://www.w3.org/2000/svg">
<path d="M57.0764 12.4693L70.1323 19.2733L57.712 27.178L57.0764 12.4693Z" fill="white"/>
<path d="M17.4728 48.0655L5.04084 40.1789L18.0867 33.3558L17.4728 48.0655Z" fill="white"/>
<path fill-rule="evenodd" clip-rule="evenodd" d="M65.9649 31.9546L64.9661 31.9048L63.9674 31.8549C64.0102 30.9968 64.0119 30.1282 63.9705 29.251C63.9291 28.3739 63.8457 27.5093 63.7222 26.659L64.7118 26.5154L65.7015 26.3717C65.8342 27.2859 65.9239 28.2149 65.9683 29.1568C66.0127 30.0986 66.0109 31.032 65.9649 31.9546ZM49.7374 4.75482L49.3073 5.65761L48.8772 6.56039C47.3235 5.82023 45.6888 5.22766 43.9919 4.79973L44.2364 3.83009L44.481 2.86045C46.3071 3.32098 48.0661 3.95862 49.7374 4.75482ZM38.9546 2.03509L38.9047 3.03384L38.8549 4.0326C37.9968 3.98977 37.1282 3.98807 36.251 4.02946C35.3739 4.07084 34.5093 4.15433 33.659 4.27776L33.5153 3.28814L33.3717 2.29851C34.2858 2.1658 35.2149 2.07612 36.1567 2.03168C37.0986 1.98724 38.032 1.98904 38.9546 2.03509ZM27.9475 3.64055L28.2823 4.58286L28.617 5.52517C26.9679 6.11097 25.3963 6.85483 23.9192 7.738L23.406 6.87971L22.8928 6.02143C24.4818 5.0714 26.1728 4.27098 27.9475 3.64055ZM18.4012 9.345L19.0717 10.0869L19.7423 10.8287C18.4541 11.9931 17.282 13.2813 16.2441 14.6734L15.4424 14.0757L14.6407 13.478C15.7564 11.9815 17.0164 10.5967 18.4012 9.345ZM11.7548 18.2626L12.6576 18.6927L13.5604 19.1228C12.8202 20.6765 12.2276 22.3112 11.7997 24.0081L10.8301 23.7635L9.86042 23.519C10.3209 21.6928 10.9586 19.9339 11.7548 18.2626ZM9.03506 29.0454C8.98901 29.968 8.9872 30.9014 9.03165 31.8432C9.07609 32.7851 9.16576 33.7141 9.29848 34.6283L10.2881 34.4847L11.2777 34.341C11.1543 33.4907 11.0708 32.6261 11.0294 31.749C10.988 30.8718 10.9897 30.0032 11.0326 29.1451L10.0338 29.0952L9.03506 29.0454ZM10.6405 40.0524L11.5828 39.7177L12.5251 39.383C13.1109 41.032 13.8548 42.6037 14.738 44.0808L13.8797 44.594L13.0214 45.1071C12.0714 43.5182 11.2709 41.8271 10.6405 40.0524ZM25.2626 56.2452L25.6927 55.3424L26.1227 54.4396C27.6764 55.1798 29.3111 55.7724 31.008 56.2003L30.7635 57.1699L30.519 58.1396C28.6928 57.679 26.9339 57.0414 25.2626 56.2452ZM36.0454 58.9649L36.0952 57.9662L36.1451 56.9674C37.0032 57.0102 37.8718 57.0119 38.7489 56.9706C39.6261 56.9292 40.4907 56.8457 41.341 56.7223L41.4846 57.7119L41.6283 58.7015C40.7141 58.8342 39.7851 58.9239 38.8432 58.9683C37.9013 59.0128 36.968 59.011 36.0454 58.9649ZM47.0524 57.3595L46.7177 56.4172L46.3829 55.4748C48.032 54.889 49.6037 54.1452 51.0807 53.262L51.5939 54.1203L52.1071 54.9786C50.5182 55.9286 48.8271 56.729 47.0524 57.3595ZM56.5987 51.655L55.9282 50.9131L55.2577 50.1713C56.5459 49.0069 57.718 47.7187 58.7558 46.3266L59.5576 46.9243L60.3593 47.522C59.2436 49.0186 57.9836 50.4034 56.5987 51.655ZM63.2452 42.7374L62.3424 42.3073L61.4396 41.8772C62.1798 40.3236 62.7723 38.6888 63.2002 36.992L64.1699 37.2365L65.1395 37.481C64.679 39.3072 64.0414 41.0661 63.2452 42.7374Z" fill="white"/>
</svg>
